<svg xmlns="http://www.w3.org/2000/svg" viewBox="0 0 1584 396" width="1584" height="396">
  <defs>
    <linearGradient id="bg" x1="0" y1="0" x2="1" y2="1"><stop offset="0" stop-color="#0b0b0c"/><stop offset="1" stop-color="#161619"/></linearGradient>
    <pattern id="grid" width="66" height="66" patternUnits="userSpaceOnUse"><path d="M66 0H0V66" fill="none" stroke="#17171c" stroke-width="1"/></pattern>
  </defs>
  <rect width="1584" height="396" fill="url(#bg)"/><rect width="1584" height="396" fill="url(#grid)"/>
  <rect x="1504" y="351" width="40" height="5" fill="#ff5c00"/><rect x="1539" y="316" width="5" height="40" fill="#ff5c00"/>
  <rect x="40" y="40" width="40" height="5" fill="#ff5c00"/><rect x="40" y="40" width="5" height="40" fill="#ff5c00"/>

  <!-- contact row at TOP (always visible, clear of avatar) -->
  <g transform="translate(329.4,40) scale(1.05)"><path d="M12 .297c-6.63 0-12 5.373-12 12 0 5.303 3.438 9.8 8.205 11.385.6.113.82-.258.82-.577 0-.285-.01-1.04-.015-2.04-3.338.724-4.042-1.61-4.042-1.61C4.422 18.07 3.633 17.7 3.633 17.7c-1.087-.744.084-.729.084-.729 1.205.084 1.838 1.236 1.838 1.236 1.07 1.835 2.809 1.305 3.495.998.108-.776.417-1.305.76-1.605-2.665-.305-5.467-1.334-5.467-5.931 0-1.311.469-2.381 1.236-3.221-.124-.303-.535-1.524.117-3.176 0 0 1.008-.322 3.301 1.23A11.509 11.509 0 0 1 12 5.803c1.02.005 2.047.138 3.006.404 2.291-1.552 3.297-1.23 3.297-1.23.653 1.653.242 2.874.118 3.176.77.84 1.235 1.911 1.235 3.221 0 4.609-2.807 5.624-5.479 5.921.43.372.823 1.102.823 2.222 0 1.606-.014 2.898-.014 3.293 0 .322.216.694.825.576C20.565 22.092 24 17.592 24 12.297c0-6.627-5.373-12-12-12" fill="#ff5c00"/></g><text x="342" y="86" text-anchor="middle" fill="#cfcfd4" font-family="DejaVu Sans, Helvetica, Arial, sans-serif" font-size="13" font-weight="bold">github.com/sylvester-francis</text><g transform="translate(629.4,40) scale(1.05)"><path d="M20.447 20.452h-3.554v-5.569c0-1.328-.027-3.037-1.852-3.037-1.853 0-2.136 1.445-2.136 2.939v5.667H9.351V9h3.414v1.561h.046c.477-.9 1.637-1.85 3.37-1.85 3.601 0 4.267 2.37 4.267 5.455v6.286zM5.337 7.433a2.062 2.062 0 0 1-2.063-2.065 2.064 2.064 0 1 1 2.063 2.065zm1.782 13.019H3.555V9h3.564v11.452zM22.225 0H1.771C.792 0 0 .774 0 1.729v20.542C0 23.227.792 24 1.771 24h20.451C23.2 24 24 23.227 24 22.271V1.729C24 .774 23.2 0 22.225 0z" fill="#ff5c00"/></g><text x="642" y="86" text-anchor="middle" fill="#cfcfd4" font-family="DejaVu Sans, Helvetica, Arial, sans-serif" font-size="13" font-weight="bold">linkedin.com/in/sylvesterranjith</text><g transform="translate(929.4,40) scale(1.05)"><path d="M13.54 12a6.8 6.8 0 0 1-6.77 6.82A6.8 6.8 0 0 1 0 12a6.8 6.8 0 0 1 6.77-6.82A6.8 6.8 0 0 1 13.54 12zM20.96 12c0 3.54-1.51 6.42-3.38 6.42-1.87 0-3.39-2.88-3.39-6.42s1.52-6.42 3.39-6.42 3.38 2.88 3.38 6.42M24 12c0 3.17-.53 5.75-1.19 5.75-.66 0-1.19-2.58-1.19-5.75s.53-5.75 1.19-5.75C23.47 6.25 24 8.83 24 12z" fill="#ff5c00"/></g><text x="942" y="86" text-anchor="middle" fill="#cfcfd4" font-family="DejaVu Sans, Helvetica, Arial, sans-serif" font-size="13" font-weight="bold">medium.com/@sylvesterranjithfrancis</text><g transform="translate(1229.4,40) scale(1.05)"><path d="M22.539 8.242H1.461V5.406h21.078v2.836zM1.461 10.812V24L12 18.11 22.539 24V10.812H1.461zM22.539 0H1.461v2.836h21.078V0z" fill="#ff5c00"/></g><text x="1242" y="86" text-anchor="middle" fill="#cfcfd4" font-family="DejaVu Sans, Helvetica, Arial, sans-serif" font-size="13" font-weight="bold">techwithsyl.substack.com</text>
  <line x1="412" y1="108" x2="1172" y2="108" stroke="#26262b" stroke-width="1.5"/>

  <!-- emphasis -->
  <text x="792" y="150" text-anchor="middle" fill="#ff5c00" font-family="DejaVu Sans, Helvetica, Arial, sans-serif" font-size="16" font-weight="bold" letter-spacing="9">[  AI PLATFORM ENGINEERING  ]</text>
  <!-- name -->
  <text x="792" y="220" text-anchor="middle" fill="#ffffff" font-family="DejaVu Sans, Helvetica, Arial, sans-serif" font-size="68" font-weight="bold" letter-spacing="2">SYLVESTER FRANCIS</text>
  <rect x="682" y="240" width="220" height="5" fill="#ff5c00"/>
  <!-- title -->
  <text x="792" y="276" text-anchor="middle" fill="#cfcfd4" font-family="DejaVu Sans, Helvetica, Arial, sans-serif" font-size="18" font-weight="bold" letter-spacing="6">PRINCIPAL ENGINEER &amp; ARCHITECT</text>
  <!-- company -->
  <text x="792" y="308" text-anchor="middle" fill="#ff5c00" font-family="DejaVu Sans, Helvetica, Arial, sans-serif" font-size="15" font-weight="bold" letter-spacing="3">FOUNDER &amp; DIRECTOR  .  SYLTECH AI SYSTEMS, INC.</text>
  <!-- scope -->
  <text x="792" y="342" text-anchor="middle" fill="#8f8f97" font-family="DejaVu Sans, Helvetica, Arial, sans-serif" font-size="13" font-weight="bold" letter-spacing="2">Self-Service Platforms  .  Cloud Infrastructure  .  Identity &amp; Authorization  .  AI / Agentic</text>
  </svg>